<?xml version="1.0" encoding="UTF-8"?>
<svg version="1.1" xmlns="http://www.w3.org/2000/svg" width="510" height="489">
<path d="M0 0 C1.52723699 0.42486312 3.05458004 0.84934517 4.58203125 1.2734375 C14.04014073 3.99499318 23.04543846 7.56453412 32.0625 11.5 C33.09721436 11.95068848 34.13192871 12.40137695 35.19799805 12.86572266 C46.20573222 17.78983782 56.05023026 24.23153822 66 31 C66.9384375 31.63550781 67.876875 32.27101562 68.84375 32.92578125 C69.7203125 33.52777344 70.596875 34.12976563 71.5 34.75 C72.2734375 35.28109375 73.046875 35.8121875 73.84375 36.359375 C76.10840372 38.08248109 78.01535821 39.96386052 80 42 C81.25961373 43.13754807 82.53051332 44.26272642 83.8125 45.375 C84.50730469 45.98085937 85.20210938 46.58671875 85.91796875 47.2109375 C87.22290639 48.33225352 88.53676166 49.44336288 89.86328125 50.5390625 C93.47409898 53.53339915 96.57848432 56.64966663 99.54296875 60.2890625 C101.01658148 62.07226657 101.01658148 62.07226657 102.8828125 63.83984375 C110.97603072 72.09731547 117.67164857 82.37318422 124 92 C124.36448242 92.55316895 124.72896484 93.10633789 125.10449219 93.67626953 C140.11482571 116.77469539 150.18846306 143.71741981 154 171 C154.30357422 172.90265625 154.30357422 172.90265625 154.61328125 174.84375 C159.17035532 206.0687016 156.57043118 239.90970228 146.71289062 269.81298828 C146.06553603 271.79894803 145.47477936 273.80313425 144.890625 275.80859375 C140.42680348 290.57478595 133.46059827 305.11007078 125 318 C124.27725297 319.13535888 123.55459247 320.27077286 122.83203125 321.40625 C121.83236328 322.93765625 121.83236328 322.93765625 120.8125 324.5 C120.13832031 325.5415625 119.46414063 326.583125 118.76953125 327.65625 C118.18558594 328.4296875 117.60164063 329.203125 117 330 C116.34 330 115.68 330 115 330 C114.75636719 330.71542969 114.51273437 331.43085938 114.26171875 332.16796875 C111.89828318 337.47289379 107.73962978 341.6091909 104 346 C103.12794922 347.05960937 103.12794922 347.05960937 102.23828125 348.140625 C98.09711457 353.07392767 93.46404076 357.33489795 88.6484375 361.60546875 C86.87910794 363.20517232 85.15280201 364.85374511 83.47265625 366.546875 C77.9218583 372.05382778 71.60144467 376.82357582 65 381 C64.25878906 381.48726563 63.51757812 381.97453125 62.75390625 382.4765625 C26.40435233 406.13347872 -12.60360107 418.26126387 -56.0625 418.1875 C-56.78199829 418.18656342 -57.50149658 418.18562683 -58.24279785 418.18466187 C-89.99640999 418.09554525 -120.41224915 412.33240339 -149 398 C-149.97710937 397.54109375 -150.95421875 397.0821875 -151.9609375 396.609375 C-167.68426764 389.09849289 -183.03090447 378.63713437 -196 367 C-197.03867052 366.14219251 -198.08030258 365.2879572 -199.125 364.4375 C-203.93419183 360.36014171 -208.06862 355.84425585 -212.15625 351.0625 C-213.50158022 349.55755433 -214.90989524 348.10824221 -216.3515625 346.6953125 C-224.7126455 338.18624573 -232.04997061 328.31747364 -238 318 C-238.42748535 317.27022949 -238.8549707 316.54045898 -239.29541016 315.78857422 C-269.64359269 263.62667266 -277.3856433 205.68028062 -262.140625 147.328125 C-255.76069981 124.53230122 -245.33199385 101.92408167 -231 83 C-230.1311068 81.79419603 -229.26408695 80.58704102 -228.3984375 79.37890625 C-223.09779685 72.05672138 -217.52882358 65.1267659 -211.375 58.5 C-210.77099365 57.84684814 -210.1669873 57.19369629 -209.54467773 56.52075195 C-208.07442303 54.97025189 -206.54244273 53.47870543 -205 52 C-204.34 52 -203.68 52 -203 52 C-202.76667969 51.42378906 -202.53335938 50.84757812 -202.29296875 50.25390625 C-196.15808755 39.55956651 -177.69603051 28.96509394 -167 23 C-166.01 23 -165.02 23 -164 23 C-164 22.34 -164 21.68 -164 21 C-161.98127728 19.89197926 -159.95991375 18.78876927 -157.9375 17.6875 C-156.24947266 16.76517578 -156.24947266 16.76517578 -154.52734375 15.82421875 C-151.07100639 14.03672202 -147.59038244 12.49731657 -144 11 C-142.82566406 10.47921875 -141.65132812 9.9584375 -140.44140625 9.421875 C-131.97791739 5.7372774 -123.42637777 2.76911894 -114.5625 0.1875 C-113.56871338 -0.1022168 -112.57492676 -0.39193359 -111.55102539 -0.69042969 C-76.38679655 -10.66768102 -34.9931307 -10.33871429 0 0 Z " fill="#15192F" transform="translate(299,34)"/>
<path d="M0 0 C5.90526643 4.83053105 10.49203834 10.72123313 15.18359375 16.6953125 C16.49456469 18.34236405 17.80701908 19.98823615 19.12109375 21.6328125 C19.765625 22.44234375 20.41015625 23.251875 21.07421875 24.0859375 C24.25386556 28.01927836 27.52074138 31.87859992 30.7890625 35.73828125 C33.18359375 38.6953125 33.18359375 38.6953125 34.19641942 40.48440653 C35.78698817 43.20226976 37.01841957 45.29756337 40.08460295 46.34424961 C42.45992842 46.5961552 44.74850298 46.62188972 47.13691711 46.57505798 C48.49089758 46.59015477 48.49089758 46.59015477 49.87223119 46.60555655 C52.89782997 46.63080523 55.92095754 46.6061693 58.9465332 46.58178711 C61.11474381 46.58967458 63.2829451 46.60063455 65.4511261 46.61444092 C71.33933636 46.6432097 77.22675328 46.62891277 83.11496377 46.60699916 C89.26763815 46.59138665 95.42015522 46.61521912 101.57279968 46.63490295 C113.22457834 46.66616831 124.87606264 46.66185734 136.52785987 46.64482838 C149.79259653 46.62716955 163.057175 46.64907424 176.32188857 46.67433536 C203.60917621 46.72541277 230.89628519 46.72669833 258.18359375 46.6953125 C256.53552233 49.99145534 253.83505957 51.05239328 250.58220291 52.61433983 C243.15297126 54.97730538 235.2251011 54.33969642 227.50537109 54.26293945 C225.51377396 54.2615275 223.52217424 54.26232384 221.53057861 54.26515198 C216.14681455 54.26658177 210.76361177 54.23726256 205.3799777 54.20228219 C199.74526055 54.17094586 194.11052937 54.16808221 188.47573853 54.16215515 C177.81574181 54.14663811 167.15600264 54.10563847 156.49611914 54.0554077 C144.35588862 53.99944773 132.21564556 53.97201098 120.0753181 53.94693053 C95.11126741 53.89472083 70.14744504 53.80682006 45.18359375 53.6953125 C46.17359375 54.8709375 46.17359375 54.8709375 47.18359375 56.0703125 C49.18359375 58.6953125 49.18359375 58.6953125 49.18359375 60.6953125 C113.86359375 60.6953125 178.54359375 60.6953125 245.18359375 60.6953125 C245.18359375 61.3553125 245.18359375 62.0153125 245.18359375 62.6953125 C238.55859375 65.6953125 238.55859375 65.6953125 235.18359375 65.6953125 C235.18359375 66.3553125 235.18359375 67.0153125 235.18359375 67.6953125 C198.22359375 67.6953125 161.26359375 67.6953125 123.18359375 67.6953125 C125.56660366 73.65283727 127.91257778 79.44086561 130.68359375 85.1953125 C133.71574551 91.55857091 136.68525166 97.94796763 139.62280273 104.35546875 C143.94133259 113.76936397 148.28610981 123.15211928 153 132.375 C154.78715925 135.8774557 156.50229776 139.4117338 158.2109375 142.953125 C170.22007639 169.21474812 170.22007639 169.21474812 192.18359375 186.6953125 C192.18359375 187.6853125 192.18359375 188.6753125 192.18359375 189.6953125 C184.26359375 189.3653125 176.34359375 189.0353125 168.18359375 188.6953125 C164.52513882 181.51911244 161.01704374 174.51328191 158.14453125 166.98828125 C156.81909609 163.82555589 155.11043605 160.93482652 153.3984375 157.96875 C152.14933313 155.63119776 151.18739979 153.29661137 150.24609375 150.8203125 C148.45443225 146.12994663 146.16515607 141.87041995 143.6484375 137.53125 C142.49100633 135.29046325 141.61123464 133.2253259 140.765625 130.8671875 C139.1955141 126.54493209 137.13586384 122.59940684 134.93359375 118.5703125 C134.13165782 117.07744261 133.3308929 115.58394314 132.53125 114.08984375 C132.13566895 113.3520166 131.74008789 112.61418945 131.33251953 111.85400391 C127.188597 104.0680789 123.2940917 96.24499812 120.1484375 87.99609375 C118.80873102 84.80140908 117.08573473 81.87482975 115.35546875 78.87890625 C113.59346256 75.59570137 112.39904307 72.21371843 111.18359375 68.6953125 C108.54359375 68.6953125 105.90359375 68.6953125 103.18359375 68.6953125 C105.68286685 74.42281336 108.28291446 80.09918281 110.93359375 85.7578125 C111.23201172 86.398396 111.53042969 87.03897949 111.83789062 87.69897461 C114.10888185 92.52947511 116.48747705 97.3025402 118.88671875 102.0703125 C123.46755736 111.18791987 127.83143456 120.40441698 132.18359375 129.6328125 C132.94645505 131.2468202 133.70947555 132.86075267 134.47265625 134.47460938 C135.23053862 136.07809198 135.98835156 137.6816074 136.74609375 139.28515625 C137.11549072 140.06684174 137.4848877 140.84852722 137.86547852 141.65390015 C139.72711203 145.59708823 141.58102182 149.54364615 143.421875 153.49658203 C143.78144287 154.26668106 144.14101074 155.03678009 144.51147461 155.83021545 C145.18776886 157.27953145 145.86191495 158.72985268 146.53344727 160.18138123 C148.23431276 163.82233156 150.089321 167.26849121 152.18359375 170.6953125 C152.91887724 172.38966141 153.65278261 174.0848434 154.35546875 175.79296875 C155.56423586 178.56971207 156.98804166 181.22798649 158.4140625 183.8984375 C159.18359375 185.6953125 159.18359375 185.6953125 159.18359375 188.6953125 C149.94359375 189.0253125 140.70359375 189.3553125 131.18359375 189.6953125 C132.18359375 186.6953125 132.18359375 186.6953125 135.12109375 185.1953125 C136.13171875 184.7003125 137.14234375 184.2053125 138.18359375 183.6953125 C140.57642366 180.10606764 140.87206391 177.83361683 140.18359375 173.6953125 C136.3664811 161.65516463 129.6373872 149.99714953 124.18359375 138.6953125 C102.40359375 138.2003125 102.40359375 138.2003125 80.18359375 137.6953125 C79.19359375 140.6653125 79.19359375 140.6653125 78.18359375 143.6953125 C77.28821115 145.42750435 76.34651112 147.13643078 75.36328125 148.8203125 C67.14897846 162.55965733 67.14897846 162.55965733 65.375 178.0625 C66.68128824 182.315825 68.30892831 183.5680452 72.18359375 185.6953125 C73.17359375 186.3553125 74.16359375 187.0153125 75.18359375 187.6953125 C75.18359375 188.3553125 75.18359375 189.0153125 75.18359375 189.6953125 C61.98359375 189.6953125 48.78359375 189.6953125 35.18359375 189.6953125 C35.18359375 188.7053125 35.18359375 187.7153125 35.18359375 186.6953125 C36.8359375 185.4765625 36.8359375 185.4765625 39.12109375 184.1953125 C53.09865432 175.28653763 59.97333711 158.39890422 67.03417969 144.03076172 C72.70087789 132.51682054 78.42964676 121.03751136 84.43359375 109.6953125 C85.63868731 107.41261459 86.84343642 105.12973562 88.04785156 102.84667969 C88.79578463 101.42991568 89.54509899 100.01387989 90.29589844 98.59863281 C91.31063365 96.67778454 92.31153057 94.75037884 93.30859375 92.8203125 C94.14777344 91.21542969 94.14777344 91.21542969 95.00390625 89.578125 C96.24433278 86.54688402 96.76608427 84.91189729 96.18359375 81.6953125 C94.41394102 79.02745362 94.41394102 79.02745362 91.99609375 76.5703125 C91.21878906 75.72210938 90.44148437 74.87390625 89.640625 74 C85.18379463 69.81950728 81.92081291 68.32889589 75.7890625 68.18359375 C73.98598633 68.13041992 73.98598633 68.13041992 72.14648438 68.07617188 C70.90060547 68.05361328 69.65472656 68.03105469 68.37109375 68.0078125 C67.10587891 67.97365234 65.84066406 67.93949219 64.53710938 67.90429688 C61.4193593 67.82194121 58.30188616 67.75274721 55.18359375 67.6953125 C55.27060547 69.52642578 55.27060547 69.52642578 55.359375 71.39453125 C55.97837868 89.91557421 50.04368296 104.08167286 37.62109375 118.0703125 C36.15523005 119.62463349 34.67677653 121.16721717 33.18359375 122.6953125 C32.52875 123.37722656 31.87390625 124.05914062 31.19921875 124.76171875 C25.29131919 130.8084792 25.29131919 130.8084792 22.18359375 132.6953125 C21.19359375 132.6953125 20.20359375 132.6953125 19.18359375 132.6953125 C19.18359375 133.3553125 19.18359375 134.0153125 19.18359375 134.6953125 C16.60268608 136.01277583 14.01908917 137.32440867 11.43359375 138.6328125 C10.70398438 139.00599609 9.974375 139.37917969 9.22265625 139.76367188 C8.51367188 140.12138672 7.8046875 140.47910156 7.07421875 140.84765625 C6.1001709 141.3425354 6.1001709 141.3425354 5.10644531 141.84741211 C0.8483647 143.72505482 -2.93334581 143.8041431 -7.56640625 143.7578125 C-8.736875 143.74878906 -9.90734375 143.73976563 -11.11328125 143.73046875 C-12.0053125 143.71886719 -12.89734375 143.70726562 -13.81640625 143.6953125 C-12.39214121 146.82667535 -10.95572038 149.95160066 -9.50390625 153.0703125 C-8.48882586 155.25085556 -7.48509804 157.43681183 -6.50390625 159.6328125 C4.54960455 183.31890708 23.8342975 203.90314772 48.4453125 213.546875 C69.48478295 220.01041138 96.06080883 220.63696474 116.6328125 212.40234375 C121.47205849 211.06099073 125.34877548 213.08285893 129.703125 215.19921875 C130.72470703 215.69228516 131.74628906 216.18535156 132.79882812 216.69335938 C133.85392578 217.20962891 134.90902344 217.72589844 135.99609375 218.2578125 C137.07052734 218.77794922 138.14496094 219.29808594 139.25195312 219.83398438 C141.89835074 221.116017 144.54207085 222.40327361 147.18359375 223.6953125 C137.12446785 234.16568194 120.21440692 240.75344402 105.87255859 241.13305664 C101.63311336 241.13265296 97.41538208 240.93216315 93.18359375 240.6953125 C92.46445801 240.67114258 91.74532227 240.64697266 91.00439453 240.62207031 C72.22238957 239.93876562 54.1468943 231.73381291 39.18359375 220.6953125 C38.384375 220.12296875 37.58515625 219.550625 36.76171875 218.9609375 C30.15047266 214.03766913 24.17032699 208.34626453 18.18359375 202.6953125 C17.06404297 201.63957031 17.06404297 201.63957031 15.921875 200.5625 C3.17083157 188.18722406 -6.2869661 173.15267345 -14.81640625 157.6953125 C-15.38617188 156.70144531 -15.9559375 155.70757812 -16.54296875 154.68359375 C-19.25575825 149.89278076 -21.51415747 145.29354497 -23.09375 140.015625 C-23.93605137 137.31115464 -24.97250251 134.70811859 -26.00390625 132.0703125 C-27.56209473 127.75671736 -28.54206354 124.32137771 -27.81640625 119.6953125 C-25.38146707 114.82543414 -22.96696472 112.47819812 -17.81640625 110.6953125 C-14.89157587 110.22986798 -12.85220957 110.35800102 -9.81640625 110.6953125 C-8.10890645 111.97593735 -6.43376884 113.3025836 -4.81640625 114.6953125 C4.3516466 113.59049429 12.52832386 105.370919 18.18359375 98.6953125 C25.15295351 89.52183451 27.57797379 78.93465224 29.18359375 67.6953125 C-11.73640625 67.6953125 -52.65640625 67.6953125 -94.81640625 67.6953125 C-86.81226167 61.69220406 -79.44991389 60.09826725 -69.58349609 60.24121094 C-68.50914307 60.24062683 -67.43479004 60.24004272 -66.32788086 60.23944092 C-62.8106954 60.24220627 -59.2943794 60.27322577 -55.77734375 60.3046875 C-53.32541364 60.31215537 -50.87347754 60.31784572 -48.42153931 60.32183838 C-41.99350268 60.33705151 -35.56583222 60.37629644 -29.13793945 60.4206543 C-22.56857251 60.46170014 -15.99914594 60.47986928 -9.4296875 60.5 C3.44156174 60.54279457 16.31255819 60.61021594 29.18359375 60.6953125 C29.18359375 58.3853125 29.18359375 56.0753125 29.18359375 53.6953125 C-7.44640625 53.6953125 -44.07640625 53.6953125 -81.81640625 53.6953125 C-80.09486416 50.25222832 -77.03742095 49.27139292 -73.60580444 47.77139282 C-65.17151797 45.37629755 -56.21928815 46.09614987 -47.5234375 46.20703125 C-45.36440351 46.2163702 -43.20535885 46.22348119 -41.04631042 46.22846985 C-35.39576362 46.2474543 -29.74587133 46.296481 -24.09558105 46.35198975 C-18.31706594 46.40336744 -12.53844388 46.42602331 -6.75976562 46.45117188 C4.55497323 46.50460832 15.86922881 46.5898167 27.18359375 46.6953125 C26.72350705 45.08717306 26.2575285 43.48071848 25.7890625 41.875 C25.53020264 40.98022949 25.27134277 40.08545898 25.00463867 39.16357422 C23.33255185 34.13687254 20.69406269 31.80717558 16.12109375 29.4453125 C1.85578667 22.76443932 -15.55458654 26.9413726 -29.81640625 31.6953125 C-29.81640625 21.1353125 -29.81640625 10.5753125 -29.81640625 -0.3046875 C-20.77734872 -3.92031051 -8.43821943 -6.06100063 0 0 Z " fill="#E4E1DC" transform="translate(160.81640625,121.3046875)"/>
<path d="M0 0 C54.45 0 108.9 0 165 0 C162.7448078 2.2551922 160.9952413 2.97723468 158 4 C157.01 4 156.02 4 155 4 C155 4.66 155 5.32 155 6 C118.04 6 81.08 6 43 6 C45.38300991 11.95752477 47.72898403 17.74555311 50.5 23.5 C53.53215176 29.86325841 56.50165791 36.25265513 59.43920898 42.66015625 C63.75773884 52.07405147 68.10251606 61.45680678 72.81640625 70.6796875 C74.6035655 74.1821432 76.31870401 77.7164213 78.02734375 81.2578125 C90.03648264 107.51943562 90.03648264 107.51943562 112 125 C112 125.99 112 126.98 112 128 C104.08 127.67 96.16 127.34 88 127 C84.34154507 119.82379994 80.83344999 112.81796941 77.9609375 105.29296875 C76.63550234 102.13024339 74.9268423 99.23951402 73.21484375 96.2734375 C71.96573938 93.93588526 71.00380604 91.60129887 70.0625 89.125 C68.2708385 84.43463413 65.98156232 80.17510745 63.46484375 75.8359375 C62.30741258 73.59515075 61.42764089 71.5300134 60.58203125 69.171875 C59.01192035 64.84961959 56.95227009 60.90409434 54.75 56.875 C53.94806407 55.38213011 53.14729915 53.88863064 52.34765625 52.39453125 C51.9520752 51.6567041 51.55649414 50.91887695 51.14892578 50.15869141 C47.00500325 42.3727664 43.11049795 34.54968562 39.96484375 26.30078125 C38.62513727 23.10609658 36.90214098 20.17951725 35.171875 17.18359375 C33.40986881 13.90038887 32.21544932 10.51840593 31 7 C28.36 7 25.72 7 23 7 C25.4992731 12.72750086 28.09932071 18.40387031 30.75 24.0625 C31.04841797 24.7030835 31.34683594 25.34366699 31.65429688 26.00366211 C33.9252881 30.83416261 36.3038833 35.6072277 38.703125 40.375 C43.28396361 49.49260737 47.64784081 58.70910448 52 67.9375 C52.7628613 69.5515077 53.5258818 71.16544017 54.2890625 72.77929688 C55.04694487 74.38277948 55.80475781 75.9862949 56.5625 77.58984375 C57.11659546 78.76237198 57.11659546 78.76237198 57.68188477 79.95858765 C59.54351828 83.90177573 61.39742807 87.84833365 63.23828125 91.80126953 C63.59784912 92.57136856 63.95741699 93.34146759 64.32788086 94.13490295 C65.00417511 95.58421895 65.6783212 97.03454018 66.34985352 98.48606873 C68.05071901 102.12701906 69.90572725 105.57317871 72 109 C72.73528349 110.69434891 73.46918886 112.3895309 74.171875 114.09765625 C75.38064211 116.87439957 76.80444791 119.53267399 78.23046875 122.203125 C79 124 79 124 79 127 C69.76 127.33 60.52 127.66 51 128 C52 125 52 125 54.9375 123.5 C55.948125 123.005 56.95875 122.51 58 122 C60.39282991 118.41075514 60.68847016 116.13830433 60 112 C56.18288735 99.95985213 49.45379345 88.30183703 44 77 C22.22 76.505 22.22 76.505 0 76 C-0.66 77.98 -1.32 79.96 -2 82 C-2.8953826 83.73219185 -3.83708263 85.44111828 -4.8203125 87.125 C-13.03461529 100.86434483 -13.03461529 100.86434483 -14.80859375 116.3671875 C-13.50230551 120.6205125 -11.87466544 121.8727327 -8 124 C-7.01 124.66 -6.02 125.32 -5 126 C-5 126.66 -5 127.32 -5 128 C-18.2 128 -31.4 128 -45 128 C-45 127.01 -45 126.02 -45 125 C-43.34765625 123.78125 -43.34765625 123.78125 -41.0625 122.5 C-27.08493943 113.59122513 -20.21025664 96.70359172 -13.14941406 82.33544922 C-7.48271586 70.82150804 -1.75394699 59.34219886 4.25 48 C5.45509356 45.71730209 6.65984267 43.43442312 7.86425781 41.15136719 C8.61219088 39.73460318 9.36150524 38.31856739 10.11230469 36.90332031 C11.1270399 34.98247204 12.12793682 33.05506634 13.125 31.125 C13.68445313 30.05507812 14.24390625 28.98515625 14.8203125 27.8828125 C16.06248941 24.8472941 16.60969463 23.21898098 16 20 C14.04416796 17.37197888 14.04416796 17.37197888 11.5 14.9375 C7 10.43055556 7 10.43055556 7 6 C6.34 5.67 5.68 5.34 5 5 C5.66 3.68 6.32 2.36 7 1 C6.401875 1.20625 5.80375 1.4125 5.1875 1.625 C3 2 3 2 0 0 Z " fill="#EBE8E3" transform="translate(241,183)"/>
<path d="M0 0 C3.4353885 2.290259 3.9803588 3.60021532 5.64453125 7.30078125 C6.14960205 8.40905273 6.65467285 9.51732422 7.17504883 10.65917969 C7.44137115 11.25355835 7.70769348 11.84793701 7.98208618 12.46032715 C9.4074008 15.63937955 10.86197856 18.80504677 12.3125 21.97265625 C12.61327957 22.63143768 12.91405914 23.29021912 13.22395325 23.96896362 C16.49083989 31.10899344 19.88974074 38.18366206 23.3125 45.25 C23.60837006 45.86175079 23.90424011 46.47350159 24.20907593 47.10379028 C27.9388662 54.81234848 31.71787482 62.49381771 35.57836914 70.13769531 C37.55112831 74.05592792 39.39529161 78.00822419 41.125 82.0390625 C42.37912051 84.84963615 43.81419159 87.56037352 45.265625 90.2734375 C46 92 46 92 46 95 C36.76 95.33 27.52 95.66 18 96 C19 93 19 93 21.9375 91.5 C22.948125 91.005 23.95875 90.51 25 90 C27.39282991 86.41075514 27.68847016 84.13830433 27 80 C23.18288735 67.95985213 16.45379345 56.30183703 11 45 C-10.78 44.505 -10.78 44.505 -33 44 C-33.66 45.98 -34.32 47.96 -35 50 C-35.8953826 51.73219185 -36.83708263 53.44111828 -37.8203125 55.125 C-46.03461529 68.86434483 -46.03461529 68.86434483 -47.80859375 84.3671875 C-46.50230551 88.6205125 -44.87466544 89.8727327 -41 92 C-40.01 92.66 -39.02 93.32 -38 94 C-38 94.66 -38 95.32 -38 96 C-51.2 96 -64.4 96 -78 96 C-78 95.01 -78 94.02 -78 93 C-76.34765625 91.78125 -76.34765625 91.78125 -74.0625 90.5 C-58.86756013 80.81531305 -50.69333779 60.84163967 -43.59375 44.828125 C-40.65054745 38.30025267 -40.65054745 38.30025267 -36.75 36.5 C-35.38875 36.2525 -35.38875 36.2525 -34 36 C-33.505 35.01 -33.505 35.01 -33 34 C-30.8614515 31.8614515 -29.86724686 31.57344937 -27 31 C-27 32.32 -27 33.64 -27 35 C-16.11 34.67 -5.22 34.34 6 34 C3.09841987 28.14479931 3.09841987 28.14479931 0.16625977 22.30493164 C-2.52027196 16.76071734 -3.65835472 12.15582672 -4 6 C-4.66 6 -5.32 6 -6 6 C-5.67 5.34 -5.34 4.68 -5 4 C-4.34 3.855625 -3.68 3.71125 -3 3.5625 C-2.34 3.376875 -1.68 3.19125 -1 3 C-0.67 2.01 -0.34 1.02 0 0 Z " fill="#EEEAE4" transform="translate(274,215)"/>
<path d="M0 0 C1.97367678 1.25386525 3.86298716 2.55704659 5.66015625 4.0546875 C4.67015625 4.7146875 3.68015625 5.3746875 2.66015625 6.0546875 C3.15515625 7.2715625 3.65015625 8.4884375 4.16015625 9.7421875 C5.38495066 12.97955488 5.9881881 15.55568107 5.66015625 19.0546875 C6.98015625 18.7246875 8.30015625 18.3946875 9.66015625 18.0546875 C6.56978357 27.91757903 4.13983201 34.01090854 -5.33984375 39.0546875 C-9.01625951 40.24514594 -12.49006743 40.12872166 -16.33984375 40.0546875 C-16.33984375 39.3946875 -16.33984375 38.7346875 -16.33984375 38.0546875 C-16.99984375 38.3434375 -17.65984375 38.6321875 -18.33984375 38.9296875 C-22.51461028 39.10363611 -24.33024608 37.44844 -27.46875 34.83203125 C-31.75428898 30.76121656 -33.18568683 28.17713787 -33.609375 22.34375 C-33.82712158 12.02924315 -33.82712158 12.02924315 -32.33984375 9.0546875 C-31.67984375 9.0546875 -31.01984375 9.0546875 -30.33984375 9.0546875 C-30.33984375 8.0646875 -30.33984375 7.0746875 -30.33984375 6.0546875 C-29.67984375 6.0546875 -29.01984375 6.0546875 -28.33984375 6.0546875 C-28.05109375 5.2709375 -27.76234375 4.4871875 -27.46484375 3.6796875 C-25.78122736 -0.24875075 -23.45223165 -1.79577494 -19.52734375 -3.3984375 C-12.76430941 -5.08919608 -5.94520662 -3.34494171 0 0 Z " fill="#B41F24" transform="translate(248.33984375,120.9453125)"/>
<path d="M0 0 C5.90612511 4.83123346 10.48829927 10.72322741 15.18359375 16.6953125 C16.55787525 18.40422389 17.93284697 20.1125805 19.30859375 21.8203125 C22.97447803 26.41370967 26.58956961 31.04554376 30.18359375 35.6953125 C29.19359375 38.0053125 28.20359375 40.3153125 27.18359375 42.6953125 C26.93609375 42.1590625 26.68859375 41.6228125 26.43359375 41.0703125 C22.59861828 33.78385911 19.22315505 30.18978436 11.47558594 27.34790039 C7.55525855 26.23168447 3.73694685 26.20983679 -0.31640625 26.2578125 C-1.61276001 26.26373413 -1.61276001 26.26373413 -2.93530273 26.26977539 C-12.36453411 26.47673529 -20.89367854 28.72106993 -29.81640625 31.6953125 C-29.81640625 21.1353125 -29.81640625 10.5753125 -29.81640625 -0.3046875 C-20.77734872 -3.92031051 -8.43821943 -6.06100063 0 0 Z " fill="#EEEBE4" transform="translate(160.81640625,121.3046875)"/>
<path d="M0 0 C71.94 0 143.88 0 218 0 C211.96641065 4.52519201 207.08425094 5.29716856 199.68569946 5.24050903 C198.45294393 5.24307231 198.45294393 5.24307231 197.19528425 5.24568737 C194.44992415 5.24897355 191.70481013 5.23799295 188.95947266 5.22705078 C186.98816941 5.22648648 185.01686575 5.2268036 183.04556274 5.22793579 C177.69894426 5.22850956 172.35241552 5.21675123 167.00581789 5.20278788 C161.41643002 5.19028463 155.82704008 5.18911034 150.23764038 5.18673706 C139.65552933 5.18052111 129.0734596 5.1641087 118.49136674 5.14403808 C106.44309502 5.1216827 94.39482132 5.11068655 82.34653401 5.10064721 C57.5643331 5.0797426 32.78216886 5.04456434 8 5 C7.67 4.01 7.34 3.02 7 2 C5.02 2.66 3.04 3.32 1 4 C0.67 2.68 0.34 1.36 0 0 Z " fill="#F1EFE9" transform="translate(199,169)"/>
<path d="M0 0 C3.05013239 -0.28774834 5.95839109 -0.4228975 9 0 C10.875 2.0625 10.875 2.0625 12 5 C12.433125 6.010625 12.86625 7.02125 13.3125 8.0625 C13.67794922 8.94615234 13.67794922 8.94615234 14.05078125 9.84765625 C15.71390966 13.61878281 17.62606944 17.26771931 19.5 20.9375 C20.76947964 23.52935427 21.90930925 26.1424997 23.03125 28.79980469 C25.1082433 33.51700822 27.37791718 38.14658124 29.61572266 42.7890625 C30.50059636 44.62623816 31.38126636 46.46538964 32.26171875 48.3046875 C32.82503906 49.47515625 33.38835937 50.645625 33.96875 51.8515625 C34.47857422 52.91197754 34.98839844 53.97239258 35.51367188 55.06494141 C36.89627409 57.795172 38.41356308 60.38504999 40 63 C40.63870606 64.52768061 41.24308608 66.07016198 41.8125 67.625 C43.28724801 71.43335309 44.99843477 74.94054142 47 78.5 C49.39712313 82.76555745 51.26552798 87.02086047 52.99609375 91.58984375 C54.03604782 94.08654282 55.26811327 96.34954064 56.625 98.6875 C58.77795709 102.41045965 60.02155019 105.8193508 61 110 C60.030625 109.67 59.06125 109.34 58.0625 109 C55.37850426 107.94826637 55.37850426 107.94826637 54 108 C53.34 108.66 52.68 109.32 52 110 C51.505 108.845 51.01 107.69 50.5 106.5 C48.56997478 102.15374387 46.47273505 97.90144581 44.33203125 93.65625 C40.22140861 85.46750536 36.18598528 77.24400622 32.1875 69 C31.84372314 68.29199249 31.49994629 67.58398499 31.14575195 66.85452271 C26.18744663 56.63452626 21.36375753 46.36295442 16.67626953 36.01538086 C13.78229402 29.64453058 10.7460038 23.36549432 7.57983398 17.12597656 C4.7466561 11.53900669 1.98309388 5.94928165 0 0 Z " fill="#202234" transform="translate(263,189)"/>
<path d="M0 0 C2.83451928 3.43379599 4.6698108 7.2186377 6.546875 11.22265625 C7.23424063 12.66347557 7.92174525 14.10422859 8.609375 15.54492188 C9.67570619 17.79235619 10.73977548 20.04081804 11.80078125 22.29077148 C23.21943006 46.79348005 23.21943006 46.79348005 44 63 C44 63.99 44 64.98 44 66 C36.08 65.67 28.16 65.34 20 65 C16.34154507 57.82379994 12.83344999 50.81796941 9.9609375 43.29296875 C8.63550234 40.13024339 6.9268423 37.23951402 5.21484375 34.2734375 C3.55041192 31.15864868 2.36239023 27.91405545 1.109375 24.6171875 C-0.51911178 20.77533488 -2.60878806 17.22868246 -4.73046875 13.640625 C-6.13976704 10.70928455 -6.69570156 8.23093346 -7 5 C-6.0625 2.625 -6.0625 2.625 -5 1 C-2.525 1.99 -2.525 1.99 0 3 C0 2.01 0 1.02 0 0 Z " fill="#ECE8E3" transform="translate(309,245)"/>
<path d="M0 0 C0.99 0.33 1.98 0.66 3 1 C2.55346069 1.84763916 2.55346069 1.84763916 2.09790039 2.71240234 C0.75255218 5.26648851 -0.59247774 7.82074217 -1.9375 10.375 C-2.40607422 11.26445312 -2.87464844 12.15390625 -3.35742188 13.0703125 C-3.80537109 13.92109375 -4.25332031 14.771875 -4.71484375 15.6484375 C-5.12855225 16.43395996 -5.54226074 17.21948242 -5.96850586 18.02880859 C-8.95573137 23.73741422 -8.79562611 29.642358 -8 36 C-6.26727684 38.75810048 -4.94686626 39.38211264 -2 41 C-1.01 41.66 -0.02 42.32 1 43 C1 43.66 1 44.32 1 45 C-12.2 45 -25.4 45 -39 45 C-39 44.01 -39 43.02 -39 42 C-37.34765625 40.78125 -37.34765625 40.78125 -35.0625 39.5 C-22.03513307 31.19684305 -14.88199716 15.76983667 -9 2 C-6.525 2.99 -6.525 2.99 -4 4 C-2.68 2.68 -1.36 1.36 0 0 Z " fill="#EEEAE4" transform="translate(235,266)"/>
<path d="M0 0 C3 1 3 1 4.50219727 3.60449219 C5.27648071 5.30847168 5.27648071 5.30847168 6.06640625 7.046875 C6.34596664 7.65509094 6.62552704 8.26330688 6.91355896 8.88995361 C7.80639591 10.83897664 8.68440508 12.79429777 9.5625 14.75 C10.15727151 16.05250914 10.75296432 17.35459801 11.34960938 18.65625 C13.66868524 23.73523825 15.92572551 28.81431378 18 34 C6.78 34 -4.44 34 -16 34 C-15.11191967 29.55959833 -14.46745088 27.7944082 -12.125 24.1875 C-9.86768764 20.5608228 -8.21997191 17.18750801 -6.85546875 13.16015625 C-5.03313763 8.55856215 -2.4405526 4.29663629 0 0 Z " fill="#171B2F" transform="translate(263,216)"/>
<path d="M0 0 C0.495 0.99 0.495 0.99 1 2 C0.01 2 -0.98 2 -2 2 C-2 2.66 -2 3.32 -2 4 C-1.01 4.99 -1.01 4.99 0 6 C-39.27 6 -78.54 6 -119 6 C-118 3 -118 3 -116.23805618 1.82990456 C-113.74061988 0.90381799 -111.85138021 0.73910604 -109.19110107 0.7215271 C-107.74403275 0.70478188 -107.74403275 0.70478188 -106.26773071 0.68769836 C-104.69032608 0.68445808 -104.69032608 0.68445808 -103.08105469 0.68115234 C-101.96856354 0.67110672 -100.85607239 0.6610611 -99.70986938 0.65071106 C-96.03054321 0.6198058 -92.35129004 0.60282329 -88.671875 0.5859375 C-86.12167733 0.56723179 -83.57148589 0.54765883 -81.02130127 0.5272522 C-74.99366126 0.48111543 -68.96602833 0.44372985 -62.938308 0.41057932 C-56.07492609 0.37234492 -49.21163881 0.32293824 -42.3483367 0.27259517 C-28.23229467 0.16930265 -14.11619168 0.08003356 0 0 Z " fill="#F2EEE9" transform="translate(191,182)"/>
<path d="M0 0 C0.33 1.32 0.66 2.64 1 4 C2.04454346 4 3.08908691 4 4.1652832 4 C39 4 39 4 41 5 C40.01 7.64 39.02 10.28 38 13 C23.81 13 9.62 13 -5 13 C-5.66 14.98 -6.32 16.96 -7 19 C-9.9375 21.25 -9.9375 21.25 -13 23 C-13.99 23.66 -14.98 24.32 -16 25 C-16.99 24.34 -17.98 23.68 -19 23 C-18.07225724 17.00787322 -15.48451903 11.92971125 -12 7 C-8.6875 5.4375 -8.6875 5.4375 -6 5 C-5.67 4.34 -5.34 3.68 -5 3 C-3 1 -3 1 0 0 Z " fill="#F2EEE8" transform="translate(246,246)"/>
<path d="M0 0 C2.5 1.75 2.5 1.75 4 3 C3.01 3.66 2.02 4.32 1 5 C1.495 6.216875 1.99 7.43375 2.5 8.6875 C3.72479441 11.92486738 4.32803185 14.50099357 4 18 C5.32 17.67 6.64 17.34 8 17 C4.90962732 26.86289153 2.47967576 32.95622104 -7 38 C-10.67641576 39.19045844 -14.15022368 39.07403416 -18 39 C-18 38.34 -18 37.68 -18 37 C-18.66 37.28875 -19.32 37.5775 -20 37.875 C-24.17476653 38.04894861 -25.99040233 36.3937525 -29.12890625 33.77734375 C-33.41444523 29.70652906 -34.84584308 27.12245037 -35.26953125 21.2890625 C-35.48727783 10.97455565 -35.48727783 10.97455565 -34 8 C-33.34 8 -32.68 8 -32 8 C-32.04640625 9.15757812 -32.0928125 10.31515625 -32.140625 11.5078125 C-32.17816248 13.04684906 -32.21456051 14.5859137 -32.25 16.125 C-32.28351563 16.88554687 -32.31703125 17.64609375 -32.3515625 18.4296875 C-32.44377024 23.77773626 -31.56527061 26.76128939 -28 31 C-27.34 31.33 -26.68 31.66 -26 32 C-26 32.66 -26 33.32 -26 34 C-25.09507812 34.09087891 -25.09507812 34.09087891 -24.171875 34.18359375 C-23.37265625 34.26738281 -22.5734375 34.35117188 -21.75 34.4375 C-20.96109375 34.51871094 -20.1721875 34.59992188 -19.359375 34.68359375 C-17 35 -17 35 -14.90625 35.5625 C-12.13240859 36.19911934 -9.75451984 35.56342451 -7 35 C-7 34.34 -7 33.68 -7 33 C-5.35 33 -3.7 33 -2 33 C-1.67 32.01 -1.34 31.02 -1 30 C-0.34 30 0.32 30 1 30 C2.55776132 23.37352302 3.48752632 18.5461219 1 12 C0.64628502 10.33753959 0.30404678 8.67225729 0 7 C-0.99 6.67 -1.98 6.34 -3 6 C-4.125 3.5625 -4.125 3.5625 -5 1 C-5.33 0.34 -5.66 -0.32 -6 -1 C-9.0399648 -1.69337792 -9.0399648 -1.69337792 -12.5625 -2.125 C-13.76003906 -2.29257813 -14.95757812 -2.46015625 -16.19140625 -2.6328125 C-17.11824219 -2.75398438 -18.04507813 -2.87515625 -19 -3 C-19 -2.34 -19 -1.68 -19 -1 C-23.455 0.485 -23.455 0.485 -28 2 C-26.01487494 -1.97025013 -25.21948054 -2.99464488 -21.1875 -4.5234375 C-13.60679771 -6.17494764 -6.40202224 -4.06716707 0 0 Z " fill="#902631" transform="translate(250,122)"/>
<path d="M0 0 C2.40498305 0.25602786 4.74005716 0.6468457 7.11328125 1.11328125 C7.933125 1.26410156 8.75296875 1.41492188 9.59765625 1.5703125 C13.40241413 2.33499423 15.82791438 2.92303667 19.11328125 5.11328125 C19.11328125 5.77328125 19.11328125 6.43328125 19.11328125 7.11328125 C20.43328125 7.11328125 21.75328125 7.11328125 23.11328125 7.11328125 C25.02113965 10.28819065 25.27418535 12.21913336 24.73828125 15.86328125 C24.62742187 16.6625 24.5165625 17.46171875 24.40234375 18.28515625 C24.30695313 18.8884375 24.2115625 19.49171875 24.11328125 20.11328125 C24.77328125 20.11328125 25.43328125 20.11328125 26.11328125 20.11328125 C28.55674909 28.18199879 28.55674909 28.18199879 26.86328125 31.73828125 C26.28578125 32.52203125 25.70828125 33.30578125 25.11328125 34.11328125 C24.84515625 35.33015625 24.57703125 36.54703125 24.30078125 37.80078125 C23.90890625 38.89390625 23.51703125 39.98703125 23.11328125 41.11328125 C20.17578125 42.36328125 20.17578125 42.36328125 17.11328125 43.11328125 C16.09308552 44.09266915 15.0917832 45.09223574 14.11328125 46.11328125 C9.6614748 48.60105545 5.08078579 48.7826041 0.11328125 48.11328125 C-3.05845906 47.06804865 -5.94260799 45.67929761 -8.88671875 44.11328125 C-9.89734375 43.61828125 -10.90796875 43.12328125 -11.94921875 42.61328125 C-12.58859375 42.11828125 -13.22796875 41.62328125 -13.88671875 41.11328125 C-13.88671875 39.79328125 -13.88671875 38.47328125 -13.88671875 37.11328125 C-14.87671875 36.78328125 -15.86671875 36.45328125 -16.88671875 36.11328125 C-16.55671875 34.79328125 -16.22671875 33.47328125 -15.88671875 32.11328125 C-15.37109375 33.16515625 -14.85546875 34.21703125 -14.32421875 35.30078125 C-11.98743782 39.3777182 -9.10237453 42.02427325 -4.88671875 44.11328125 C-2.09028631 44.53631631 -2.09028631 44.53631631 0.11328125 44.11328125 C0.11328125 44.77328125 0.11328125 45.43328125 0.11328125 46.11328125 C7.80991326 45.27888002 14.41952757 43.65687 20.11328125 38.11328125 C21.27725071 35.71647444 21.27725071 35.71647444 22.11328125 33.11328125 C22.81360574 31.50560205 23.52164982 29.90125812 24.23828125 28.30078125 C24.76808594 27.11548828 24.76808594 27.11548828 25.30859375 25.90625 C25.57414062 25.31457031 25.8396875 24.72289062 26.11328125 24.11328125 C24.79328125 24.44328125 23.47328125 24.77328125 22.11328125 25.11328125 C21.60815881 23.51072017 21.10936498 21.90616333 20.61328125 20.30078125 C20.33484375 19.40746094 20.05640625 18.51414063 19.76953125 17.59375 C19.11328125 15.11328125 19.11328125 15.11328125 19.11328125 12.11328125 C18.45328125 11.78328125 17.79328125 11.45328125 17.11328125 11.11328125 C18.10328125 10.78328125 19.09328125 10.45328125 20.11328125 10.11328125 C15.14983434 5.85889819 11.06582009 3.97851751 4.55078125 3.42578125 C3.15666016 3.29623047 3.15666016 3.29623047 1.734375 3.1640625 C-0.71293037 3.11664824 -2.56471791 3.38663158 -4.88671875 4.11328125 C-3.7347725 1.5789995 -2.9070606 0.17454401 0 0 Z " fill="#391424" transform="translate(231.88671875,114.88671875)"/>
<path d="M0 0 C0.66 0 1.32 0 2 0 C2 1.32 2 2.64 2 4 C3.65 4.33 5.3 4.66 7 5 C7 4.01 7 3.02 7 2 C11.62 2 16.24 2 21 2 C21 2.33 21 2.66 21 3 C16.71 3 12.42 3 8 3 C8.93627417 5.0422291 9.8740765 7.08375764 10.8125 9.125 C11.33457031 10.26195312 11.85664063 11.39890625 12.39453125 12.5703125 C13.45464099 14.83497515 14.55579555 17.08092651 15.69921875 19.3046875 C17 22 17 22 17 24 C16.01 23.67 15.02 23.34 14 23 C14 22.34 14 21.68 14 21 C12.02 21.99 12.02 21.99 10 23 C8.50656376 20.29930572 7.03293507 17.58827625 5.5625 14.875 C5.14162109 14.11445313 4.72074219 13.35390625 4.28710938 12.5703125 C2.02241035 8.3670311 0.42537118 4.84149745 0 0 Z " fill="#D4D3D2" transform="translate(139,262)"/>
<path d="M0 0 C0 0.66 0 1.32 0 2 C38.94 2 77.88 2 118 2 C118 2.33 118 2.66 118 3 C77.08 3 36.16 3 -6 3 C-2 0 -2 0 0 0 Z " fill="#D9D7DA" transform="translate(72,186)"/>
<path d="M0 0 C3 3.625 3 3.625 3 7 C5.62594784 6.8863485 8.25011547 6.75960946 10.875 6.625 C11.62136719 6.5940625 12.36773437 6.563125 13.13671875 6.53125 C17.53473188 6.44356169 17.53473188 6.44356169 21 4 C21 3.01 21 2.02 21 1 C24.58273331 2.65356922 27.80973467 4.67980703 31 7 C31 7.66 31 8.32 31 9 C17.8 9 4.6 9 -9 9 C-9 8.01 -9 7.02 -9 6 C-7.03125 4.39453125 -7.03125 4.39453125 -4.5 2.8125 C-3.6646875 2.28269531 -2.829375 1.75289063 -1.96875 1.20703125 C-1.3190625 0.80871094 -0.669375 0.41039062 0 0 Z " fill="#D2D0D1" transform="translate(205,302)"/>
<path d="M0 0 C2.5 1.75 2.5 1.75 4 3 C3.01 3.66 2.02 4.32 1 5 C1.495 6.216875 1.99 7.43375 2.5 8.6875 C3.72479441 11.92486738 4.32803185 14.50099357 4 18 C5.32 17.67 6.64 17.34 8 17 C7.01 19.97 6.02 22.94 5 26 C3.95550089 22.86650268 4.06576355 22.01031744 5 19 C4.01 18.67 3.02 18.34 2 18 C1.34 14.37 0.68 10.74 0 7 C-0.99 6.67 -1.98 6.34 -3 6 C-4.125 3.5625 -4.125 3.5625 -5 1 C-5.33 0.34 -5.66 -0.32 -6 -1 C-9.0399648 -1.69337792 -9.0399648 -1.69337792 -12.5625 -2.125 C-14.35880859 -2.37636719 -14.35880859 -2.37636719 -16.19140625 -2.6328125 C-17.11824219 -2.75398438 -18.04507813 -2.87515625 -19 -3 C-19 -2.34 -19 -1.68 -19 -1 C-23.455 0.485 -23.455 0.485 -28 2 C-26.01487494 -1.97025013 -25.21948054 -2.99464488 -21.1875 -4.5234375 C-13.60679771 -6.17494764 -6.40202224 -4.06716707 0 0 Z " fill="#8D262F" transform="translate(250,122)"/>
<path d="M0 0 C2.39073149 2.93189994 3.84107307 5.72143288 5.1875 9.25 C5.53167969 10.14203125 5.87585938 11.0340625 6.23046875 11.953125 C6.48441406 12.62859375 6.73835938 13.3040625 7 14 C6.34 14 5.68 14 5 14 C4.67 13.34 4.34 12.68 4 12 C3.01 12 2.02 12 1 12 C-0.71711243 14.44496043 -0.71711243 14.44496043 -2 17 C-5.19445793 13.5151368 -6.49582731 9.6421938 -7 5 C-6.125 2.5 -6.125 2.5 -5 1 C-2.525 1.99 -2.525 1.99 0 3 C0 2.01 0 1.02 0 0 Z " fill="#E2DEDC" transform="translate(309,245)"/>
<path d="M0 0 C2.97 0.99 5.94 1.98 9 3 C8.01 4.485 8.01 4.485 7 6 C6.34 6 5.68 6 5 6 C6.29299694 8.88437779 7.65941363 10.87219421 10 13 C9.67 13.66 9.34 14.32 9 15 C5.10993227 13.61219205 2.03441292 11.7847773 -1.3125 9.375 C-2.19550781 8.74335938 -3.07851562 8.11171875 -3.98828125 7.4609375 C-4.65214844 6.97882813 -5.31601563 6.49671875 -6 6 C-5.195625 5.38125 -4.39125 4.7625 -3.5625 4.125 C-0.96125481 2.25835959 -0.96125481 2.25835959 0 0 Z " fill="#E3DFDE" transform="translate(199,331)"/>
<path d="M0 0 C0.33 0.66 0.66 1.32 1 2 C2.65 2 4.3 2 6 2 C6.33 2.99 6.66 3.98 7 5 C7.99 5.33 8.98 5.66 10 6 C10.33 7.98 10.66 9.96 11 12 C10.34 12 9.68 12 9 12 C8.67 13.32 8.34 14.64 8 16 C7.01 16 6.02 16 5 16 C4.15488176 14.27656245 3.32436646 12.54595947 2.5 10.8125 C2.0359375 9.84957031 1.571875 8.88664063 1.09375 7.89453125 C0.00407079 5.01077307 -0.22277524 3.04645139 0 0 Z " fill="#1A1D2E" transform="translate(282,225)"/>
<path d="M0 0 C1.32 0.33 2.64 0.66 4 1 C4 1.66 4 2.32 4 3 C4.99 3.33 5.98 3.66 7 4 C6.67 6.64 6.34 9.28 6 12 C4.02 12.33 2.04 12.66 0 13 C-2.40814077 9.48812804 -3.36629408 7.27343092 -3 3 C-2.34 3 -1.68 3 -1 3 C-0.67 2.01 -0.34 1.02 0 0 Z " fill="#F0EDE6" transform="translate(310,256)"/>
<path d="M0 0 C4.70560181 3.52920136 7.77273392 6.48025363 10 12 C8.75 15.4375 8.75 15.4375 7 18 C6.7525 17.46375 6.505 16.9275 6.25 16.375 C2.86876655 9.95065645 -0.43153382 6.04964501 -7 3 C-4.69 2.01 -2.38 1.02 0 0 Z " fill="#DFDDDC" transform="translate(181,146)"/>
<path d="M0 0 C3.05071175 -0.287803 5.96060262 -0.4472872 9 0 C11.10361696 2.4223468 12 3.78245634 12 7 C11.071875 7.12375 11.071875 7.12375 10.125 7.25 C7.81562433 7.81258459 7.81562433 7.81258459 6.75 10.0625 C6.5025 10.701875 6.255 11.34125 6 12 C3.32098068 9.68118495 2.33795597 7.68185532 1.3125 4.3125 C1.06113281 3.50425781 0.80976563 2.69601563 0.55078125 1.86328125 C0.36902344 1.24839844 0.18726563 0.63351563 0 0 Z " fill="#313243" transform="translate(263,189)"/>
<path d="M0 0 C0.66 0.99 1.32 1.98 2 3 C1.67 3.66 1.34 4.32 1 5 C1.99 5.33 2.98 5.66 4 6 C2.60919892 7.58775549 1.21211596 9.17000939 -0.1875 10.75 C-0.96480469 11.63171875 -1.74210937 12.5134375 -2.54296875 13.421875 C-4.88545668 15.87981146 -7.35442582 17.88354065 -10 20 C-10.66 20.99 -11.32 21.98 -12 23 C-12.66 22.67 -13.32 22.34 -14 22 C-13.67 21.34 -13.34 20.68 -13 20 C-13.66 19.67 -14.32 19.34 -15 19 C-15 18.01 -15 17.02 -15 16 C-13.741875 15.773125 -12.48375 15.54625 -11.1875 15.3125 C-7.92222767 14.51342807 -7.24059356 14.33185318 -5.1875 11.5 C-4.795625 10.675 -4.40375 9.85 -4 9 C-3.01 8.34 -2.02 7.68 -1 7 C-0.26393501 3.43230448 -0.26393501 3.43230448 0 0 Z " fill="#3E3B4C" transform="translate(395,378)"/>
<path d="M0 0 C3 1 3 1 4.203125 2.99609375 C4.54859375 3.80175781 4.8940625 4.60742188 5.25 5.4375 C5.60578125 6.24058594 5.9615625 7.04367188 6.328125 7.87109375 C7 10 7 10 6 12 C5.4225 11.62875 4.845 11.2575 4.25 10.875 C2.02238854 9.70751964 2.02238854 9.70751964 -0.0625 10.875 C-1.0215625 11.431875 -1.0215625 11.431875 -2 12 C-2.99 12 -3.98 12 -5 12 C-4.67 12.99 -4.34 13.98 -4 15 C-4.99 15 -5.98 15 -7 15 C-5.63408831 11.45756548 -4.09068516 8.07372071 -2.375 4.6875 C-1.70597656 3.36298828 -1.70597656 3.36298828 -1.0234375 2.01171875 C-0.68570312 1.34785156 -0.34796875 0.68398437 0 0 Z " fill="#202234" transform="translate(263,216)"/>
<path d="M0 0 C0.33 0 0.66 0 1 0 C1.02888146 3.31248187 1.04675799 6.62493167 1.0625 9.9375 C1.07087891 10.88302734 1.07925781 11.82855469 1.08789062 12.80273438 C1.09111328 13.70185547 1.09433594 14.60097656 1.09765625 15.52734375 C1.10289307 16.35999756 1.10812988 17.19265137 1.11352539 18.05053711 C1 20 1 20 0 21 C-0.22881538 22.99616505 -0.39531688 24.99954193 -0.53515625 27.00390625 C-0.62216797 28.21884766 -0.70917969 29.43378906 -0.79882812 30.68554688 C-0.88583984 31.96494141 -0.97285156 33.24433594 -1.0625 34.5625 C-1.19881836 36.48739258 -1.19881836 36.48739258 -1.33789062 38.45117188 C-1.56268946 41.63385015 -1.78319818 44.81676858 -2 48 C-2.33 48 -2.66 48 -3 48 C-3.25469393 31.87591515 -3.40871886 15.84593634 0 0 Z " fill="#96949E" transform="translate(32,204)"/>
<path d="M0 0 C11.88 0.33 23.76 0.66 36 1 C36 1.66 36 2.32 36 3 C31.35522856 3.02472039 26.71049543 3.04286968 22.06567383 3.05493164 C20.48558892 3.05996014 18.90550866 3.06678378 17.32543945 3.07543945 C15.05418754 3.08756992 12.78299715 3.09324313 10.51171875 3.09765625 C9.45219246 3.10539818 9.45219246 3.10539818 8.3712616 3.11329651 C5.29745609 3.11364803 2.9409558 2.9803186 0 2 C0 1.34 0 0.68 0 0 Z " fill="#252433" transform="translate(223,449)"/>
<path d="M0 0 C3.42931954 3.7559214 4.56429083 8.23466745 6 13 C5.030625 12.67 4.06125 12.34 3.0625 12 C0.37850426 10.94826637 0.37850426 10.94826637 -1 11 C-1.66 11.66 -2.32 12.32 -3 13 C-5 10 -5 10 -4.875 8.1875 C-3.6636371 5.15909276 -1.87251234 2.65775945 0 0 Z " fill="#2A2C3C" transform="translate(318,286)"/>
<path d="M0 0 C0.66 0 1.32 0 2 0 C2.70226141 1.24176695 3.38629109 2.49385599 4.0625 3.75 C4.44535156 4.44609375 4.82820313 5.1421875 5.22265625 5.859375 C6.14354341 8.39528538 5.96281656 9.5136056 5 12 C3.5625 13.625 3.5625 13.625 2 15 C1.34 15.66 0.68 16.32 0 17 C-1.32 13.7 -2.64 10.4 -4 7 C-2.02 6.67 -0.04 6.34 2 6 C2 5.01 2 4.02 2 3 C1.34 3 0.68 3 0 3 C0 2.01 0 1.02 0 0 Z " fill="#292A3A" transform="translate(278,205)"/>
<path d="M0 0 C2 3 2 3 2 5 C7.61 5 13.22 5 19 5 C19.33 4.34 19.66 3.68 20 3 C20 3.99 20 4.98 20 6 C10.76 6.33 1.52 6.66 -8 7 C-7 4 -7 4 -4 2.375 C-3.01 1.92125 -2.02 1.4675 -1 1 C-0.67 0.67 -0.34 0.34 0 0 Z " fill="#CFCDD0" transform="translate(300,304)"/>
<path d="M0 0 C3 3.625 3 3.625 3 7 C-1.1205746 8.99785435 -4.45194365 9.17835515 -9 9 C-9 8.01 -9 7.02 -9 6 C-7.03125 4.39453125 -7.03125 4.39453125 -4.5 2.8125 C-3.6646875 2.28269531 -2.829375 1.75289063 -1.96875 1.20703125 C-1.3190625 0.80871094 -0.669375 0.41039062 0 0 Z " fill="#D8D6D9" transform="translate(205,302)"/>
<path d="M0 0 C2.125 0.375 2.125 0.375 4 1 C4 1.66 4 2.32 4 3 C4.99 3.33 5.98 3.66 7 4 C7.99 4.66 8.98 5.32 10 6 C11.99212671 7.01559401 13.9911515 8.01789629 16 9 C16 9.99 16 10.98 16 12 C11.20867288 11.50372318 7.97909713 9.19771508 4.1875 6.4375 C3.59001953 6.01275391 2.99253906 5.58800781 2.37695312 5.15039062 C0.91259467 4.10776741 -0.54445735 3.05489548 -2 2 C-1.34 1.34 -0.68 0.68 0 0 Z " fill="#474154" transform="translate(116,408)"/>
<path d="M0 0 C3.0831351 1.19899698 6.06279492 2.47700477 9 4 C9 4.99 9 5.98 9 7 C1.08 6.67 -6.84 6.34 -15 6 C-15 5.67 -15 5.34 -15 5 C-10.05 4.67 -5.1 4.34 0 4 C0 2.68 0 1.36 0 0 Z " fill="#CAC8CB" transform="translate(344,304)"/>
<path d="M0 0 C0.33 0.66 0.66 1.32 1 2 C1.66 2 2.32 2 3 2 C3 3.32 3 4.64 3 6 C3.66 6 4.32 6 5 6 C5 7.65 5 9.3 5 11 C5.99 11.33 6.98 11.66 8 12 C8 13.32 8 14.64 8 16 C8.99 15.67 9.98 15.34 11 15 C10.67 17.64 10.34 20.28 10 23 C6.90578773 19.35358984 5.18696245 15.28515717 3.3125 10.9375 C2.99216797 10.21755859 2.67183594 9.49761719 2.34179688 8.75585938 C1.00764058 5.69213585 0 3.37721995 0 0 Z " fill="#555166" transform="translate(43,313)"/>
<path d="M0 0 C8.41192037 -0.10094304 16.64399592 -0.10102642 25 1 C25.33 1.99 25.66 2.98 26 4 C17.10708083 4.48506832 8.69059407 2.67625695 0 1 C0 0.67 0 0.34 0 0 Z " fill="#686572" transform="translate(195,447)"/>
<path d="M0 0 C0.99 0.33 1.98 0.66 3 1 C2.01 2.98 1.02 4.96 0 7 C-0.66 7 -1.32 7 -2 7 C-2 7.99 -2 8.98 -2 10 C-2.66 10 -3.32 10 -4 10 C-4.33 15.61 -4.66 21.22 -5 27 C-5.66 26.67 -6.32 26.34 -7 26 C-6.85946128 23.37461716 -6.71281053 20.74982573 -6.5625 18.125 C-6.52318359 17.37863281 -6.48386719 16.63226563 -6.44335938 15.86328125 C-6.11328125 10.2265625 -6.11328125 10.2265625 -5 8 C-4.34 8 -3.68 8 -3 8 C-2.87625 7.4225 -2.7525 6.845 -2.625 6.25 C-1.99351176 3.97664233 -1.11141809 2.0746471 0 0 Z " fill="#401622" transform="translate(220,120)"/>
<path d="M0 0 C-0.33 0.66 -0.66 1.32 -1 2 C-1.639375 1.690625 -2.27875 1.38125 -2.9375 1.0625 C-6.92049104 -0.31935403 -10.81650849 -0.6536543 -15 -1 C-15 -0.34 -15 0.32 -15 1 C-19.455 2.485 -19.455 2.485 -24 4 C-22.01481151 0.02962302 -21.22068446 -0.97824382 -17.203125 -2.53125 C-11.41082518 -3.76365422 -5.13530702 -2.92243468 0 0 Z " fill="#842837" transform="translate(246,120)"/>
<path d="M0 0 C0.99 0 1.98 0 3 0 C5.44346784 8.06871754 5.44346784 8.06871754 3.75 11.625 C3.1725 12.40875 2.595 13.1925 2 14 C1.27833809 16.31691454 0.59940471 18.64848923 0 21 C-0.99 20.67 -1.98 20.34 -3 20 C-2.34 20 -1.68 20 -1 20 C-0.896875 18.845 -0.79375 17.69 -0.6875 16.5 C-0.13964887 11.98828481 1.2774879 8.19394251 3 4 C2.01 4.33 1.02 4.66 0 5 C0 3.35 0 1.7 0 0 Z " fill="#251326" transform="translate(255,135)"/>
<path d="M0 0 C5.54603965 3.7569946 9.38163185 7.34629976 13 13 C11.68 13 10.36 13 9 13 C6.9375 10.625 6.9375 10.625 5 8 C4.01 7.34 3.02 6.68 2 6 C1.34 5.34 0.68 4.68 0 4 C0 2.68 0 1.36 0 0 Z " fill="#4C4C5A" transform="translate(385,82)"/>
<path d="M0 0 C0.66 0 1.32 0 2 0 C2 1.32 2 2.64 2 4 C3.65 4.33 5.3 4.66 7 5 C7 4.01 7 3.02 7 2 C11.62 2 16.24 2 21 2 C21 2.33 21 2.66 21 3 C16.71 3 12.42 3 8 3 C8.33 4.32 8.66 5.64 9 7 C7.02 7.99 5.04 8.98 3 10 C2.49818809 8.52144705 1.99859924 7.04213942 1.5 5.5625 C1.2215625 4.73878906 0.943125 3.91507812 0.65625 3.06640625 C0 1 0 1 0 0 Z " fill="#BCBABA" transform="translate(139,262)"/>
<path d="M0 0 C0.33 0.66 0.66 1.32 1 2 C3.79120091 3.39560045 6.20205692 3.21808288 9.3203125 3.31640625 C10.57714844 3.35830078 11.83398438 3.40019531 13.12890625 3.44335938 C15.10697266 3.50233398 15.10697266 3.50233398 17.125 3.5625 C18.46485751 3.60569512 19.80470156 3.64930973 21.14453125 3.69335938 C24.42957815 3.79970981 27.71470281 3.90173808 31 4 C31.33 3.34 31.66 2.68 32 2 C32.495 3.485 32.495 3.485 33 5 C21.78 5 10.56 5 -1 5 C-0.67 3.35 -0.34 1.7 0 0 Z " fill="#2C2C35" transform="translate(248,245)"/>
<path d="M0 0 C8.14137214 6.65488565 8.14137214 6.65488565 11 11 C11 12.32 11 13.64 11 15 C10.34 15 9.68 15 9 15 C8.34 13.02 7.68 11.04 7 9 C5.35 9 3.7 9 2 9 C2 7.35 2 5.7 2 4 C1.34 4 0.68 4 0 4 C0 2.68 0 1.36 0 0 Z " fill="#252634" transform="translate(247,192)"/>
<path d="M0 0 C6.95660771 0.57021375 13.31427305 2.01302694 20 4 C20 4.33 20 4.66 20 5 C17.41422773 4.93986576 14.8341319 4.85282878 12.25 4.75 C11.52039063 4.73582031 10.79078125 4.72164062 10.0390625 4.70703125 C6.37424151 4.54044848 4.36948928 4.30064035 1.484375 1.953125 C0.99453125 1.30859375 0.5046875 0.6640625 0 0 Z " fill="#666572" transform="translate(279,30)"/>
<path d="M0 0 C0 0.99 0 1.98 0 3 C-0.6496875 3.61875 -0.6496875 3.61875 -1.3125 4.25 C-3.30262705 6.07062613 -3.30262705 6.07062613 -4.25 9.5625 C-6 13 -6 13 -9.6875 14.4375 C-10.780625 14.623125 -11.87375 14.80875 -13 15 C-8.70214922 9.96836982 -4.36574458 4.97281557 0 0 Z " fill="#5E5D6E" transform="translate(93,87)"/>
<path d="M0 0 C0.66 0.33 1.32 0.66 2 1 C2.4140625 3.50390625 2.4140625 3.50390625 2.625 6.5625 C2.69976562 7.57441406 2.77453125 8.58632813 2.8515625 9.62890625 C2.90054688 10.41136719 2.94953125 11.19382812 3 12 C0 11 0 11 -1.75 8.1875 C-2.98589446 5.03596914 -3.28222189 4.03070628 -2 1 C-1.67 1.33 -1.34 1.66 -1 2 C-0.67 1.34 -0.34 0.68 0 0 Z " fill="#EEEBE8" transform="translate(146,268)"/>
<path d="M0 0 C0.33 0.99 0.66 1.98 1 3 C-5.71162938 3.88021369 -12.23405981 4.11381955 -19 4 C-13.5018812 0.33458746 -6.52793043 -0.34357529 0 0 Z " fill="#858590" transform="translate(212,29)"/>
<path d="M0 0 C2.97 0 5.94 0 9 0 C9 3 9 3 8 5 C5.4375 5.625 5.4375 5.625 3 6 C0 2.25 0 2.25 0 0 Z " fill="#202131" transform="translate(207,176)"/>
<path d="M0 0 C3.91211733 1.15585285 6.8745041 2.35534962 10 5 C4.25 9 4.25 9 2 9 C2.66 7.35 3.32 5.7 4 4 C2.68 3.34 1.36 2.68 0 2 C0 1.34 0 0.68 0 0 Z M-1 3 C1 4 1 4 1 4 Z " fill="#D8D7D9" transform="translate(298,341)"/>
<path d="M0 0 C1.32 0.99 2.64 1.98 4 3 C2.02 5.97 2.02 5.97 0 9 C-2.50037734 6.82575883 -3.43628586 5.26954202 -4 2 C-2.68 1.34 -1.36 0.68 0 0 Z " fill="#17192D" transform="translate(314,284)"/>
<path d="M0 0 C-1.32 0.33 -2.64 0.66 -4 1 C-4 1.66 -4 2.32 -4 3 C-8.84762716 5.0962712 -12.76520228 5 -18 5 C-15.4033438 2.4033438 -13.06184625 1.89312309 -9.5625 0.8125 C-8.40878906 0.44769531 -7.25507813 0.08289062 -6.06640625 -0.29296875 C-3 -1 -3 -1 0 0 Z " fill="#64636E" transform="translate(182,37)"/>
<path d="M0 0 C1.98 0 3.96 0 6 0 C6.33 0.99 6.66 1.98 7 3 C-1.42857143 6.42857143 -1.42857143 6.42857143 -6 6 C-6 5.34 -6 4.68 -6 4 C-4.02 3.34 -2.04 2.68 0 2 C0 1.34 0 0.68 0 0 Z " fill="#524D5D" transform="translate(315,435)"/>
<path d="M0 0 C0.33 0.66 0.66 1.32 1 2 C0.22265625 4.1640625 0.22265625 4.1640625 -0.9375 6.625 C-1.31777344 7.44226563 -1.69804688 8.25953125 -2.08984375 9.1015625 C-2.54037109 10.04128906 -2.54037109 10.04128906 -3 11 C-3.99 11 -4.98 11 -6 11 C-6 11.99 -6 12.98 -6 14 C-6.66 14 -7.32 14 -8 14 C-8 14.99 -8 15.98 -8 17 C-8.66 17 -9.32 17 -10 17 C-8.72678116 12.43763248 -7.05152719 9.59003199 -4 6 C-2.62193067 4.02664222 -1.31366148 2.01740871 0 0 Z " fill="#676572" transform="translate(68,117)"/>
<path d="M0 0 C1.16161779 2.86578759 0.9946154 4.01630163 0.00390625 7.015625 C-0.70958984 8.61664063 -0.70958984 8.61664063 -1.4375 10.25 C-1.91058594 11.32765625 -2.38367188 12.4053125 -2.87109375 13.515625 C-3.24363281 14.33546875 -3.61617188 15.1553125 -4 16 C-4.33 16 -4.66 16 -5 16 C-5 14.02 -5 12.04 -5 10 C-4.34 10 -3.68 10 -3 10 C-3.33 8.68 -3.66 7.36 -4 6 C-3.67 6 -3.34 6 -3 6 C-2.87625 5.195625 -2.7525 4.39125 -2.625 3.5625 C-2.41875 2.716875 -2.2125 1.87125 -2 1 C-1.34 0.67 -0.68 0.34 0 0 Z " fill="#595664" transform="translate(442,309)"/>
<path d="M0 0 C2 3 2 3 1.625 5.5625 C1.41875 6.366875 1.2125 7.17125 1 8 C1 8.66 1 9.32 1 10 C-2.465 11.485 -2.465 11.485 -6 13 C-4.31326082 8.50202887 -2.18326108 4.27113698 0 0 Z " fill="#DBD9D8" transform="translate(222,276)"/>
<path d="M0 0 C2.475 0.495 2.475 0.495 5 1 C5 1.66 5 2.32 5 3 C5.53625 3.37125 6.0725 3.7425 6.625 4.125 C8 6 8 6 7.75390625 7.97265625 C7.23548406 9.99986576 6.62225994 12.00221809 6 14 C5.67 14 5.34 14 5 14 C4.49487756 12.39743892 3.99608373 10.79288208 3.5 9.1875 C3.08234375 7.84751953 3.08234375 7.84751953 2.65625 6.48046875 C2 4 2 4 2 1 C1.34 0.67 0.68 0.34 0 0 Z " fill="#471A29" transform="translate(249,126)"/>
<path d="M0 0 C2.9375 1.1875 2.9375 1.1875 6 3 C6.9375 5.5625 6.9375 5.5625 7 8 C6.67 8.66 6.34 9.32 6 10 C3.69 7.69 1.38 5.38 -1 3 C-0.67 2.01 -0.34 1.02 0 0 Z " fill="#575668" transform="translate(88,383)"/>
<path d="M0 0 C0.33 0 0.66 0 1 0 C1 1.98 1 3.96 1 6 C0.34 6 -0.32 6 -1 6 C-1.66 8.97 -2.32 11.94 -3 15 C-4.32 15 -5.64 15 -7 15 C-5.63408831 11.45756548 -4.09068516 8.07372071 -2.375 4.6875 C-1.70597656 3.36298828 -1.70597656 3.36298828 -1.0234375 2.01171875 C-0.68570313 1.34785156 -0.34796875 0.68398437 0 0 Z " fill="#DCDADC" transform="translate(234,253)"/>
<path d="M0 0 C7.71428571 4 7.71428571 4 9 8 C3.25 8.125 3.25 8.125 1 7 C0.59270772 4.67843403 0.25561323 2.3431213 0 0 Z " fill="#5A5968" transform="translate(367,67)"/>
<path d="M0 0 C0 0.66 0 1.32 0 2 C0.66 2 1.32 2 2 2 C2 2.66 2 3.32 2 4 C-4.435 4.495 -4.435 4.495 -11 5 C-4.33333333 0 -4.33333333 0 0 0 Z " fill="#E6E4E3" transform="translate(92,169)"/>
<path d="M0 0 C0.66 0 1.32 0 2 0 C2 0.66 2 1.32 2 2 C3.32 2 4.64 2 6 2 C7.85776765 5.13498292 8.20140476 7.37471432 8 11 C5.17369103 9.96368671 4.18909471 9.39919994 2.875 6.625 C2.58625 5.75875 2.2975 4.8925 2 4 C1.34786461 2.65949948 0.68620031 1.32338632 0 0 Z " fill="#281529" transform="translate(249,120)"/>
<path d="M0 0 C3.3125 0.1875 3.3125 0.1875 7 1 C8.9375 3.5625 8.9375 3.5625 10 6 C8.02 6.33 6.04 6.66 4 7 C2.02 3.535 2.02 3.535 0 0 Z " fill="#DBD9D9" transform="translate(159,299)"/>
<path d="M0 0 C0.99 0.66 1.98 1.32 3 2 C3 2.99 3 3.98 3 5 C3.66 5 4.32 5 5 5 C5 6.65 5 8.3 5 10 C2.69 9.67 0.38 9.34 -2 9 C-1.67 7.68 -1.34 6.36 -1 5 C-0.34 5 0.32 5 1 5 C0.67 3.35 0.34 1.7 0 0 Z " fill="#15192B" transform="translate(306,266)"/>
<path d="M0 0 C0.66 0.33 1.32 0.66 2 1 C1.88141732 5.94813173 1.72224474 9.0925643 -1.4375 13.0625 C-4 15 -4 15 -6 15 C-4 10 -2 5 0 0 Z " fill="#383946" transform="translate(213,213)"/>
<path d="M0 0 C0 3.29223784 -0.50518132 5.08510357 -2 8 C-4 9.375 -4 9.375 -6 10 C-6.66 9.67 -7.32 9.34 -8 9 C-6.4169423 4.7257442 -3.49431596 2.73468206 0 0 Z " fill="#575664" transform="translate(104,77)"/>
<path d="M0 0 C2 1.75 2 1.75 4 4 C4 5.32 4 6.64 4 8 C2.35 8.33 0.7 8.66 -1 9 C-1.66 8.01 -2.32 7.02 -3 6 C-2.34 5.34 -1.68 4.68 -1 4 C-0.3574765 1.93125966 -0.3574765 1.93125966 0 0 Z " fill="#17172C" transform="translate(299,250)"/>
<path d="M0 0 C3.80666984 1.44390925 5.26602582 3.34952803 7 7 C6.67 7.66 6.34 8.32 6 9 C3.525 8.01 3.525 8.01 1 7 C0.67 4.69 0.34 2.38 0 0 Z " fill="#4C4A58" transform="translate(416,119)"/>
<path d="M0 0 C4.12751449 0.60698743 7.3321148 2.03810791 11 4 C11 4.33 11 4.66 11 5 C9.35 5 7.7 5 6 5 C6 4.34 6 3.68 6 3 C5.01 3.495 5.01 3.495 4 4 C4 4.66 4 5.32 4 6 C2.68 5.67 1.36 5.34 0 5 C0 3.35 0 1.7 0 0 Z " fill="#4E4C5C" transform="translate(318,41)"/>
<path d="M0 0 C1.4540625 0.0309375 1.4540625 0.0309375 2.9375 0.0625 C2.75 1.9375 2.75 1.9375 1.9375 4.0625 C-0.625 5.3125 -0.625 5.3125 -3.0625 6.0625 C-3.44468767 4.40635343 -3.77645102 2.73792976 -4.0625 1.0625 C-3.0625 0.0625 -3.0625 0.0625 0 0 Z " fill="#F2EEE7" transform="translate(196.0625,329.9375)"/>
<path d="M0 0 C0.66 0.99 1.32 1.98 2 3 C1.21625 3.45375 0.4325 3.9075 -0.375 4.375 C-3.03698031 5.88428742 -3.03698031 5.88428742 -5 8 C-5.99 5.69 -6.98 3.38 -8 1 C-7.071875 1.2784375 -7.071875 1.2784375 -6.125 1.5625 C-3.95839822 2.23686176 -3.95839822 2.23686176 -2 1 C-1.34 1.33 -0.68 1.66 0 2 C0 1.34 0 0.68 0 0 Z " fill="#2C2D3F" transform="translate(303,256)"/>
<path d="M0 0 C1.32 0.33 2.64 0.66 4 1 C1.03 3.64 -1.94 6.28 -5 9 C-5.33 8.01 -5.66 7.02 -6 6 C-4.625 4.5 -4.625 4.5 -3 3 C-2.34 3 -1.68 3 -1 3 C-0.67 2.01 -0.34 1.02 0 0 Z " fill="#2D2E39" transform="translate(205,298)"/>
<path d="M0 0 C2 1 2 1 3.1875 4.125 C4.0345353 8.16470682 3.81913654 10.98623096 3 15 C1.08697693 11.73386305 0.64325339 9.00554752 0.375 5.25 C0.30023438 4.26515625 0.22546875 3.2803125 0.1484375 2.265625 C0.09945312 1.51796875 0.05046875 0.7703125 0 0 Z " fill="#656370" transform="translate(32,271)"/>
<path d="M0 0 C1.32 1.32 2.64 2.64 4 4 C3.01 4.495 3.01 4.495 2 5 C2.33 6.65 2.66 8.3 3 10 C1.02 8.35 -0.96 6.7 -3 5 C-2.34 4.67 -1.68 4.34 -1 4 C-0.34786708 1.97536745 -0.34786708 1.97536745 0 0 Z " fill="#DDDBDC" transform="translate(175,312)"/>
<path d="M0 0 C0.66 0.33 1.32 0.66 2 1 C2.90949326 5.29942266 3.15926382 8.74936599 2 13 C-0.1229936 9.46167734 -0.62231907 6.078954 -1 2 C-0.67 1.34 -0.34 0.68 0 0 Z " fill="#3B384B" transform="translate(36,284)"/>
<path d="M0 0 C0.33 0.66 0.66 1.32 1 2 C1.66 2 2.32 2 3 2 C2.67 6.95 2.34 11.9 2 17 C1.67 17 1.34 17 1 17 C0.1679418 11.27959989 -0.12036664 5.77759884 0 0 Z " fill="#898697" transform="translate(30,254)"/>
<path d="M0 0 C0.99 0.33 1.98 0.66 3 1 C3.33 2.65 3.66 4.3 4 6 C0.25 7.125 0.25 7.125 -2 6 C-1.34 4.02 -0.68 2.04 0 0 Z " fill="#33333E" transform="translate(263,216)"/>
<path d="M0 0 C0.33 0 0.66 0 1 0 C0.57910004 5.60461531 0.08386889 10.72086547 -2 16 C-2.33 16 -2.66 16 -3 16 C-3.37952295 9.80112515 -2.8352113 5.5522888 0 0 Z " fill="#21232F" transform="translate(189,191)"/>
<path d="M0 0 C6.19887485 -0.37952295 10.4477112 0.1647887 16 3 C15.01 3.66 14.02 4.32 13 5 C9.8125 4.125 9.8125 4.125 7 3 C7 2.34 7 1.68 7 1 C4.69 1 2.38 1 0 1 C0 0.67 0 0.34 0 0 Z " fill="#9C212A" transform="translate(231,119)"/>
<path d="M0 0 C3.65316671 1.24976756 4.78065836 1.67098753 7 5 C6.01 5.495 6.01 5.495 5 6 C2.375 5.0625 2.375 5.0625 0 4 C0 2.68 0 1.36 0 0 Z " fill="#EEECEA" transform="translate(165,304)"/>
<path d="M0 0 C0.33 0.66 0.66 1.32 1 2 C1.804375 1.979375 2.60875 1.95875 3.4375 1.9375 C6 2 6 2 7 3 C7.04080783 4.99958364 7.04254356 7.00045254 7 9 C6.01 8.67 5.02 8.34 4 8 C3.67 6.35 3.34 4.7 3 3 C2.01 3 1.02 3 0 3 C0 2.01 0 1.02 0 0 Z " fill="#13152D" transform="translate(282,225)"/>
<path d="M0 0 C2.31 0 4.62 0 7 0 C6.34 1.65 5.68 3.3 5 5 C3.68 4.67 2.36 4.34 1 4 C0.67 2.68 0.34 1.36 0 0 Z " fill="#181B2A" transform="translate(264,190)"/>
<path d="M0 0 C1.32 0.66 2.64 1.32 4 2 C0.37 3.98 -3.26 5.96 -7 8 C-7.33 6.68 -7.66 5.36 -8 4 C-6.68 4.33 -5.36 4.66 -4 5 C-4 4.34 -4 3.68 -4 3 C-2.68 3 -1.36 3 0 3 C0 2.01 0 1.02 0 0 Z " fill="#595865" transform="translate(356,416)"/>
<path d="M0 0 C0.33 0.66 0.66 1.32 1 2 C-0.8125 5 -0.8125 5 -3 8 C-3.99 8 -4.98 8 -6 8 C-4.125 3.25 -4.125 3.25 -3 1 C-2.01 0.67 -1.02 0.34 0 0 Z " fill="#4A4857" transform="translate(429,340)"/>
<path d="M0 0 C-3.56910772 1.42764309 -6.44315964 2.09727615 -10.25 1.9375 C-11.4875 1.958125 -12.725 1.97875 -14 2 C-14.66 2.99 -15.32 3.98 -16 5 C-16.33 3.35 -16.66 1.7 -17 0 C-14.9174133 -0.19561869 -12.83388144 -0.38119313 -10.75 -0.5625 C-9.58984375 -0.66691406 -8.4296875 -0.77132813 -7.234375 -0.87890625 C-4.48128523 -0.98198087 -2.580018 -0.86213473 0 0 Z " fill="#2C2A37" transform="translate(164,265)"/>
<path d="M0 0 C0 0.66 0 1.32 0 2 C4.29 2 8.58 2 13 2 C13 2.33 13 2.66 13 3 C6.73 3 0.46 3 -6 3 C-2 0 -2 0 0 0 Z " fill="#B4B4BC" transform="translate(72,186)"/>
<path d="M0 0 C1 2 1 2 1 6 C-1.4375 7.625 -1.4375 7.625 -4 9 C-4.33 9.66 -4.66 10.32 -5 11 C-5.66 11 -6.32 11 -7 11 C-5.22054913 6.95579349 -2.60470327 3.53921513 0 0 Z " fill="#6B6A75" transform="translate(79,102)"/>
<path d="M0 0 C0.99 0.33 1.98 0.66 3 1 C0.34345343 4.73884332 -1.58110387 6.64978174 -6 8 C-6 7.01 -6 6.02 -6 5 C-4.68 5 -3.36 5 -2 5 C-2 4.01 -2 3.02 -2 2 C-1.34 1.34 -0.68 0.68 0 0 Z " fill="#5C5A69" transform="translate(374,403)"/>
<path d="M0 0 C0.66 0 1.32 0 2 0 C0.52307692 6.64615385 0.52307692 6.64615385 -2.125 8.4375 C-2.74375 8.623125 -3.3625 8.80875 -4 9 C-2.94124926 5.59687262 -1.99097846 2.98646769 0 0 Z " fill="#2D2F3C" transform="translate(253,236)"/>
<path d="M0 0 C1.34493725 0.98433813 2.68020837 1.98219459 4 3 C2.39431334 2.71682074 0.79047953 2.42312209 -0.8125 2.125 C-1.70582031 1.96257812 -2.59914062 1.80015625 -3.51953125 1.6328125 C-6 1 -6 1 -9 -1 C-5.356524 -2.34943556 -3.42442141 -1.7122107 0 0 Z " fill="#605A6B" transform="translate(177,440)"/>
<path d="M0 0 C0 0.99 0 1.98 0 3 C-2.31 3 -4.62 3 -7 3 C-7 2.01 -7 1.02 -7 0 C-4.3333581 -1.33332095 -2.83319697 -0.67102033 0 0 Z " fill="#D3D2DB" transform="translate(353,308)"/>
<path d="M0 0 C-1.38877354 3.35620271 -2.91677965 5.07298728 -6 7 C-6.66 7 -7.32 7 -8 7 C-8 6.01 -8 5.02 -8 4 C-2.74285714 0 -2.74285714 0 0 0 Z " fill="#DDDBDE" transform="translate(189,247)"/>
<path d="M0 0 C2 1 2 1 3.125 4.0625 C3.41375 5.031875 3.7025 6.00125 4 7 C2.35 7.33 0.7 7.66 -1 8 C-1 5.16032769 -0.59732819 2.76264289 0 0 Z " fill="#DFDDDC" transform="translate(275,216)"/>
<path d="M0 0 C0.66 0.33 1.32 0.66 2 1 C0.84414715 4.91211733 -0.35534962 7.8745041 -3 11 C-2.835 10.071875 -2.67 9.14375 -2.5 8.1875 C-1.92251612 5.04378647 -1.92251612 5.04378647 -2 2 C-1.34 1.34 -0.68 0.68 0 0 Z " fill="#292937" transform="translate(253,211)"/>
<path d="M0 0 C2.97 0 5.94 0 9 0 C6.3144406 2.6855594 3.62378672 3.06049974 0 4 C-0.33 3.34 -0.66 2.68 -1 2 C-0.67 1.34 -0.34 0.68 0 0 Z " fill="#E0DFE2" transform="translate(397,183)"/>
<path d="M0 0 C2 3 2 3 2 6 C1.34 6 0.68 6 0 6 C0 6.66 0 7.32 0 8 C-1.32 7.67 -2.64 7.34 -4 7 C-2.68 4.69 -1.36 2.38 0 0 Z " fill="#2B2C3C" transform="translate(444,173)"/>
<path d="M0 0 C0.66 0.99 1.32 1.98 2 3 C1.67 3.66 1.34 4.32 1 5 C1.99 5.33 2.98 5.66 4 6 C2.68 7.32 1.36 8.64 0 10 C-1.125 3.375 -1.125 3.375 0 0 Z " fill="#333244" transform="translate(395,378)"/>
<path d="M0 0 C2.15377564 2.62198774 3.40072174 4.64404172 4 8 C2.35 7.67 0.7 7.34 -1 7 C-1.04254356 5.00045254 -1.04080783 2.99958364 -1 1 C-0.67 0.67 -0.34 0.34 0 0 Z " fill="#DCDBDA" transform="translate(317,262)"/>
<path d="M0 0 C0.33 0 0.66 0 1 0 C1.625 3.375 1.625 3.375 2 7 C1.34 7.66 0.68 8.32 0 9 C-0.6425235 11.06874034 -0.6425235 11.06874034 -1 13 C-1.66 13 -2.32 13 -3 13 C-2.01 8.71 -1.02 4.42 0 0 Z " fill="#B9B8BB" transform="translate(189,196)"/>
<path d="M0 0 C1.49080078 0.29197266 1.49080078 0.29197266 3.01171875 0.58984375 C4.15060547 0.82380859 4.15060547 0.82380859 5.3125 1.0625 C5.3125 1.3925 5.3125 1.7225 5.3125 2.0625 C0.6925 2.0625 -3.9275 2.0625 -8.6875 2.0625 C-8.6875 1.4025 -8.6875 0.7425 -8.6875 0.0625 C-5.21237282 -1.09587573 -3.55079714 -0.71015943 0 0 Z " fill="#4A4855" transform="translate(267.6875,448.9375)"/>
<path d="M0 0 C2.91517292 1.07401108 4.77810176 1.77810176 7 4 C1.25 5.125 1.25 5.125 -1 4 C-0.67 2.68 -0.34 1.36 0 0 Z " fill="#212231" transform="translate(201,343)"/>
<path d="M0 0 C0 0.99 0 1.98 0 3 C0.99 3.66 1.98 4.32 3 5 C0.03 5 -2.94 5 -6 5 C-5.67 4.01 -5.34 3.02 -5 2 C-2.4375 0.8125 -2.4375 0.8125 0 0 Z " fill="#B5B5BA" transform="translate(298,306)"/>
<path d="M0 0 C1.9451 2.91765 2.45276317 4.62537285 3 8 C2.01 8 1.02 8 0 8 C-0.66 6.02 -1.32 4.04 -2 2 C-1.34 1.34 -0.68 0.68 0 0 Z " fill="#232433" transform="translate(132,245)"/>
<path d="M0 0 C3.3 0.33 6.6 0.66 10 1 C10 1.33 10 1.66 10 2 C1.96428571 4.27678571 1.96428571 4.27678571 -2 3 C-1.34 2.01 -0.68 1.02 0 0 Z " fill="#B4B2B6" transform="translate(140,146)"/>
<path d="M0 0 C0.99 0.33 1.98 0.66 3 1 C1.6875 3.9375 1.6875 3.9375 0 7 C-0.99 7.33 -1.98 7.66 -3 8 C-2.37240135 5.07120629 -1.41377341 2.63904371 0 0 Z " fill="#2A1023" transform="translate(220,120)"/>
<path d="M0 0 C1.98 0.99 3.96 1.98 6 3 C6 3.66 6 4.32 6 5 C3.36 5 0.72 5 -2 5 C-1.01 4.34 -0.02 3.68 1 3 C0.67 2.01 0.34 1.02 0 0 Z " fill="#BDBEC3" transform="translate(230,306)"/>
<path d="M0 0 C0.66 0.33 1.32 0.66 2 1 C2 1.66 2 2.32 2 3 C-0.30276574 5.21747812 -1.52480092 5.96760006 -4.75 6.1875 C-5.86375 6.0946875 -5.86375 6.0946875 -7 6 C-6.34 5.67 -5.68 5.34 -5 5 C-5 4.34 -5 3.68 -5 3 C-2.625 1.3125 -2.625 1.3125 0 0 Z " fill="#343341" transform="translate(185,251)"/>
<path d="M0 0 C2 2 2 2 2 6 C0.35 6.33 -1.3 6.66 -3 7 C-3 3 -3 3 -1.5 1.25 C-1.005 0.8375 -0.51 0.425 0 0 Z " fill="#F3EFEA" transform="translate(247,232)"/>
<path d="M0 0 C0.33 0.99 0.66 1.98 1 3 C3.01508358 3.73323796 3.01508358 3.73323796 5 4 C5.33 3.34 5.66 2.68 6 2 C6 2.99 6 3.98 6 5 C4 6.6875 4 6.6875 2 8 C2 7.34 2 6.68 2 6 C1.34 6 0.68 6 0 6 C0 4.02 0 2.04 0 0 Z " fill="#121529" transform="translate(274,206)"/>
<path d="M0 0 C1.11329523 3.33988568 1.01098929 5.6300357 0 9 C-1.5625 11.3125 -1.5625 11.3125 -3 13 C-2.52060632 8.28596212 -2.03165952 4.33420699 0 0 Z " fill="#7B7988" transform="translate(41,169)"/>
<path d="M0 0 C2.50298434 2.93828597 3.46930939 5.17902761 4 9 C2.0625 8.1875 2.0625 8.1875 0 7 C-1.04449911 3.86650268 -0.93423645 3.01031744 0 0 Z " fill="#676471" transform="translate(436,152)"/>
<path d="M0 0 C2.2870771 0.26970249 4.53591335 0.60689229 6.796875 1.04296875 C6.796875 1.37296875 6.796875 1.70296875 6.796875 2.04296875 C5.559375 2.18734375 4.321875 2.33171875 3.046875 2.48046875 C0.23183001 2.82985377 -2.4732747 3.24676241 -5.203125 4.04296875 C-3.94603213 1.27736445 -3.13780685 0.06119836 0 0 Z " fill="#351122" transform="translate(232.203125,114.95703125)"/>
<path d="M0 0 C0.33 0 0.66 0 1 0 C1.25 2.25 1.25 2.25 1 5 C-1 7.3125 -1 7.3125 -3 9 C-3 7.35 -3 5.7 -3 4 C-2.34 4 -1.68 4 -1 4 C-0.67 2.68 -0.34 1.36 0 0 Z " fill="#585764" transform="translate(422,349)"/>
<path d="M0 0 C0.33 0.66 0.66 1.32 1 2 C-0.4375 4.625 -0.4375 4.625 -2 7 C-3.32 6.67 -4.64 6.34 -6 6 C-4.02 4.02 -2.04 2.04 0 0 Z " fill="#3B3C47" transform="translate(196,241)"/>
<path d="M0 0 C2.0625 0.4375 2.0625 0.4375 4 1 C4.33 2.32 4.66 3.64 5 5 C3.35 5 1.7 5 0 5 C-0.5625 3.0625 -0.5625 3.0625 -1 1 C-0.67 0.67 -0.34 0.34 0 0 Z " fill="#E1DDDC" transform="translate(282,235)"/>
<path d="M0 0 C0.99 0.33 1.98 0.66 3 1 C3 1.66 3 2.32 3 3 C2.34 3 1.68 3 1 3 C0.34 4.65 -0.32 6.3 -1 8 C-1.66 8 -2.32 8 -3 8 C-1.125 2.25 -1.125 2.25 0 0 Z " fill="#CECDD0" transform="translate(247,227)"/>
<path d="M0 0 C0.99 0 1.98 0 3 0 C3.66 1.98 4.32 3.96 5 6 C4.34 6.66 3.68 7.32 3 8 C0 2.25 0 2.25 0 0 Z " fill="#242434" transform="translate(282,228)"/>
<path d="M0 0 C0.99 0.33 1.98 0.66 3 1 C2.67 1.99 2.34 2.98 2 4 C1.01 4 0.02 4 -1 4 C-0.67 4.99 -0.34 5.98 0 7 C-0.99 7 -1.98 7 -3 7 C-1.125 2.25 -1.125 2.25 0 0 Z " fill="#383A47" transform="translate(259,224)"/>
<path d="M0 0 C1.65 0 3.3 0 5 0 C4.34 1.65 3.68 3.3 3 5 C2.01 5 1.02 5 0 5 C0 3.35 0 1.7 0 0 Z " fill="#212131" transform="translate(179,212)"/>
<path d="M0 0 C2.76223278 2.76223278 2.57856291 5.20706617 3 9 C1.68 8.01 0.36 7.02 -1 6 C-0.67 4.02 -0.34 2.04 0 0 Z " fill="#6B6974" transform="translate(440,161)"/>
<path d="M0 0 C3.96 1.98 3.96 1.98 8 4 C6.02 4.99 6.02 4.99 4 6 C3.34 5.34 2.68 4.68 2 4 C1.01 3.67 0.02 3.34 -1 3 C-0.67 2.01 -0.34 1.02 0 0 Z " fill="#612130" transform="translate(246,120)"/>
<path d="M0 0 C0.99 0.33 1.98 0.66 3 1 C2.01 1.495 2.01 1.495 1 2 C0.27840576 3.64363134 -0.39351421 5.31050386 -1 7 C-1.66 5.68 -2.32 4.36 -3 3 C-2.01 2.67 -1.02 2.34 0 2 C0 1.34 0 0.68 0 0 Z " fill="#494551" transform="translate(413,362)"/>
<path d="M0 0 C0.99 0.66 1.98 1.32 3 2 C2.34 2.66 1.68 3.32 1 4 C0.30251417 5.31747324 -0.36959957 6.64914193 -1 8 C-1.66 8 -2.32 8 -3 8 C-1.125 2.25 -1.125 2.25 0 0 Z " fill="#CFCBCD" transform="translate(226,268)"/>
<path d="M0 0 C1.32 0.33 2.64 0.66 4 1 C4 2.65 4 4.3 4 6 C3.01 6.495 3.01 6.495 2 7 C0.5393715 4.35261084 0 3.10551666 0 0 Z " fill="#E0DDDF" transform="translate(275,236)"/>
<path d="M0 0 C0.33 0 0.66 0 1 0 C1.25 5.625 1.25 5.625 -1 9 C-1.66 9 -2.32 9 -3 9 C-2.01 6.03 -1.02 3.06 0 0 Z " fill="#696671" transform="translate(49,149)"/>
<path d="M0 0 C3.16115776 1.36983503 3.9927092 1.9890638 6 5 C4.35 5 2.7 5 1 5 C0.67 3.35 0.34 1.7 0 0 Z " fill="#5B5D68" transform="translate(379,77)"/>
<path d="M0 0 C5.75 1.75 5.75 1.75 8 4 C7.01 4 6.02 4 5 4 C4.67 4.66 4.34 5.32 4 6 C4 5.34 4 4.68 4 4 C3.01 3.67 2.02 3.34 1 3 C0.67 2.01 0.34 1.02 0 0 Z " fill="#595767" transform="translate(347,55)"/>
<path d="M0 0 C-0.33 1.32 -0.66 2.64 -1 4 C-3.31 4 -5.62 4 -8 4 C-5.29881977 1.17603885 -4.05589853 0 0 0 Z " fill="#605F6A" transform="translate(151,48)"/>
<path d="M0 0 C1.98 0 3.96 0 6 0 C6.33 0.99 6.66 1.98 7 3 C4.69 3 2.38 3 0 3 C0 2.01 0 1.02 0 0 Z " fill="#64656E" transform="translate(206,29)"/>
<path d="M0 0 C1.32 0.66 2.64 1.32 4 2 C2.35 3.32 0.7 4.64 -1 6 C-1.33 5.01 -1.66 4.02 -2 3 C-1.34 2.01 -0.68 1.02 0 0 Z " fill="#4E4B57" transform="translate(362,411)"/>
<path d="M0 0 C2.31 0.33 4.62 0.66 7 1 C6.67 2.32 6.34 3.64 6 5 C2.83884224 3.63016497 2.0072908 3.0109362 0 0 Z " fill="#716F7B" transform="translate(97,395)"/>
<path d="M0 0 C1.32 0 2.64 0 4 0 C2.25 3.875 2.25 3.875 0 5 C0 4.34 0 3.68 0 3 C-0.66 2.67 -1.32 2.34 -2 2 C-1.34 1.34 -0.68 0.68 0 0 Z " fill="#524F5F" transform="translate(407,369)"/>
<path d="M0 0 C0.99 0.33 1.98 0.66 3 1 C4.1875 3.5625 4.1875 3.5625 5 6 C4.01 5.67 3.02 5.34 2 5 C1.01 5.33 0.02 5.66 -1 6 C-0.67 4.02 -0.34 2.04 0 0 Z " fill="#DBD8D9" transform="translate(155,287)"/>
<path d="M0 0 C0.66 0.33 1.32 0.66 2 1 C2 2.65 2 4.3 2 6 C1.01 6 0.02 6 -1 6 C-1.33 4.68 -1.66 3.36 -2 2 C-1.34 2 -0.68 2 0 2 C0 1.34 0 0.68 0 0 Z " fill="#F4F1EA" transform="translate(316,273)"/>
<path d="M0 0 C0.33 0.99 0.66 1.98 1 3 C1.66 3 2.32 3 3 3 C3 3.66 3 4.32 3 5 C2.01 5.495 2.01 5.495 1 6 C0.34 6.99 -0.32 7.98 -1 9 C-2.25541557 5.23375329 -1.37061958 3.62811066 0 0 Z " fill="#D0CDCE" transform="translate(258,204)"/>
<path d="M0 0 C0.99 0 1.98 0 3 0 C3 1.32 3 2.64 3 4 C0.36 4 -2.28 4 -5 4 C-5 3.67 -5 3.34 -5 3 C-3.35 3 -1.7 3 0 3 C0 2.01 0 1.02 0 0 Z " fill="#252631" transform="translate(185,164)"/>
<path d="M0 0 C0.66 0 1.32 0 2 0 C1.01 2.97 0.02 5.94 -1 9 C-2.25541557 5.23375329 -1.37061958 3.62811066 0 0 Z " fill="#6A2434" transform="translate(256,139)"/>
<path d="M0 0 C2.99324263 1.0975223 3.84610901 1.67682892 5.25 4.625 C5.4975 5.40875 5.745 6.1925 6 7 C5.01 7 4.02 7 3 7 C3 6.01 3 5.02 3 4 C2.34 4 1.68 4 1 4 C0.67 2.68 0.34 1.36 0 0 Z " fill="#6B6C77" transform="translate(398,95)"/>
</svg>
